<?xml version="1.0" ?><svg height="60px" version="1.1" viewBox="0 0 60 60" width="60px" xmlns="http://www.w3.org/2000/svg" xmlns:xlink="http://www.w3.org/1999/xlink"><title/><desc/><defs/><g fill="none" fill-rule="evenodd" id="Page-1" stroke="none" stroke-width="1"><g id="Spotify" stroke="#000000" stroke-width="2" transform="translate(1.000000, 1.000000)"><path d="M52,29.1322 C52,16.4092 41.706,6.0002 28.868,6.0002 C16.145,6.0002 5.736,16.4092 5.736,29.1322 C5.736,41.8552 16.145,52.2642 28.868,52.2642 C41.59,52.2642 52,41.8552 52,29.1322 L52,29.1322 Z" id="Stroke-42"/><path d="M44.7133,23.0022 C45.7543,23.5802 46.1013,24.9682 45.5233,26.0092 C44.9443,26.8192 43.5563,27.1662 42.5153,26.5882 C35.1133,22.1922 22.7373,21.7302 15.6823,23.9272 C14.5253,24.2742 13.3693,23.5802 13.0223,22.5352 C12.6753,21.3832 13.3693,20.2262 14.4103,19.8792 C22.6223,17.4502 36.1543,17.9132 44.7133,23.0022 L44.7133,23.0022 Z" id="Stroke-43"/><path d="M41.8218,30.7515 C42.5158,31.0985 42.8628,32.2555 42.2848,33.0645 C41.7058,33.8745 40.6648,34.2215 39.8558,33.6435 C33.6098,29.8215 24.1258,28.6695 16.8388,30.9825 C15.9138,31.2095 14.8728,30.7515 14.6418,29.8215 C14.4098,28.9005 14.8728,27.8595 15.7978,27.6285 C24.2418,25.0845 34.6508,26.3565 41.8218,30.7515 L41.8218,30.7515 Z" id="Stroke-44"/><path d="M38.9303,37.4598 C39.7403,37.8068 39.8553,38.7318 39.5083,39.4258 C39.0463,40.1198 38.2363,40.3518 37.5423,39.8838 C32.1063,36.5348 25.2823,35.8408 17.1863,37.6908 C16.3763,37.9228 15.6823,37.3438 15.4513,36.6498 C15.2193,35.8408 15.7983,35.1468 16.4923,34.9148 C25.2823,32.9488 32.9163,33.7588 38.9303,37.4598 L38.9303,37.4598 Z" id="Stroke-45"/><path d="M54,58 L4,58 C1.791,58 0,56.209 0,54 L0,4 C0,1.791 1.791,0 4,0 L54,0 C56.209,0 58,1.791 58,4 L58,54 C58,56.209 56.209,58 54,58 L54,58 Z" id="Stroke-123" stroke-linejoin="round"/></g></g></svg>